
<svg xmlns="http://www.w3.org/2000/svg" viewBox="0 0 1440 320" preserveAspectRatio="none">
  <path fill="#f3f4f5" fill-opacity="0.8" d="M0,224L15,192C30,160,60,96,90,112C120,128,150,224,180,234.7C210,245,240,171,270,144C300,117,330,139,360,170.7C390,203,420,245,450,240C480,235,510,181,540,144C570,107,600,85,630,106.7C660,128,690,192,720,192C750,192,780,128,810,138.7C840,149,870,235,900,266.7C930,299,960,277,990,256C1020,235,1050,213,1080,181.3C1110,149,1140,107,1170,90.7C1200,75,1230,85,1260,128C1290,171,1320,245,1350,234.7C1380,224,1410,128,1425,80L1440,32L1440,320L1425,320C1410,320,1380,320,1350,320C1320,320,1290,320,1260,320C1230,320,1200,320,1170,320C1140,320,1110,320,1080,320C1050,320,1020,320,990,320C960,320,930,320,900,320C870,320,840,320,810,320C780,320,750,320,720,320C690,320,660,320,630,320C600,320,570,320,540,320C510,320,480,320,450,320C420,320,390,320,360,320C330,320,300,320,270,320C240,320,210,320,180,320C150,320,120,320,90,320C60,320,30,320,15,320L0,320Z"></path>
</svg>

